<?xml version="1.0" standalone="no"?>
<!DOCTYPE svg PUBLIC "-//W3C//DTD SVG 20010904//EN"
 "http://www.w3.org/TR/2001/REC-SVG-20010904/DTD/svg10.dtd">
<svg version="1.0" xmlns="http://www.w3.org/2000/svg"
 width="120.000000pt" height="120.000000pt" viewBox="0 0 120.000000 120.000000"
 preserveAspectRatio="xMidYMid meet">
<metadata>
Created by potrace 1.11, written by Peter Selinger 2001-2013
</metadata>
<g transform="translate(0.000000,120.000000) scale(0.100000,-0.100000)"
fill="#000000" stroke="none">
<path d="M299 1179 c-10 -10 -23 -37 -30 -61 -7 -24 -20 -50 -28 -59 -13 -12
-79 -40 -126 -52 -86 -23 -103 -40 -99 -97 1 -19 3 -53 5 -75 1 -22 9 -51 18
-65 18 -30 18 -29 37 -320 7 -121 8 -122 79 -170 27 -19 61 -46 75 -60 32 -33
148 -110 165 -110 7 0 15 -4 17 -8 5 -13 126 -92 141 -92 7 0 31 9 53 19 75
36 157 71 168 71 6 0 45 18 86 39 41 21 119 61 173 89 54 27 101 52 104 56 3
3 7 58 9 123 10 290 11 306 26 317 11 8 14 35 14 110 l-1 99 -80 41 c-44 23
-98 54 -120 69 -22 15 -45 27 -52 27 -17 0 -43 40 -43 67 0 13 -10 29 -24 38
-25 17 -52 16 -101 -4 -26 -11 -36 -10 -70 7 l-41 20 -91 -33 -91 -32 -28 22
c-52 41 -118 51 -145 24z"/>
</g>
</svg>
